# xmcd CD database file
#
# Track frame offsets:
#	150
#	14134
#	34785
#	48633
#	75291
#	93234
#	108271
#	122547
#	140100
#	149528
#	169356
#	184373
#	232929
#
# Disc length: 3661 seconds
#
# Revision: 0
# Processed by: cddbd v1.5PL3 Copyright (c) Steve Scherf et al.
# Submitted via: Feurio! 1.67 - http://www.feurio.com
#
DISCID=b30e4b0d
DTITLE=Double Trouble - Ten Years Trouble
DYEAR=1900
DGENRE=blues
TTITLE0=Double Trouble
TTITLE1=Let's Work Together
TTITLE2=Don't Try To Fool Me
TTITLE3=For You Day By Day
TTITLE4=Resignation
TTITLE5=Starter
TTITLE6=Hot Number
TTITLE7=Ain't No Sunshine
TTITLE8=Monkey
TTITLE9=Promises
TTITLE10=Politician
TTITLE11=Boogie Tribute
TTITLE12=Double Trouble ( ext Version )
EXTD=
EXTT0=
EXTT1=
EXTT2=
EXTT3=
EXTT4=
EXTT5=
EXTT6=
EXTT7=
EXTT8=
EXTT9=
EXTT10=
EXTT11=
EXTT12=
PLAYORDER=
